<svg xmlns="http://www.w3.org/2000/svg" version="1.1" xmlns:xlink="http://www.w3.org/1999/xlink" width="1000" height="1000"><style>
    #light-icon {
      display: inline;
    }
    #dark-icon {
      display: none;
    }

    @media (prefers-color-scheme: dark) {
      #light-icon {
        display: none;
      }
      #dark-icon {
        display: inline;
      }
    }
  </style><g id="light-icon"><svg xmlns="http://www.w3.org/2000/svg" version="1.1" xmlns:xlink="http://www.w3.org/1999/xlink" width="1000" height="1000"><g clip-path="url(#SvgjsClipPath1132)"><rect width="1000" height="1000" fill="#000000"></rect><g transform="matrix(1.7831351081471445,0,0,1.7831351081471445,0,33.5764340864107)"><svg xmlns="http://www.w3.org/2000/svg" version="1.1" xmlns:xlink="http://www.w3.org/1999/xlink" width="560.81" height="523.15"><svg xmlns="http://www.w3.org/2000/svg" viewBox="0 0 560.81 523.15"><defs><style>.cls-1{fill:none;}.cls-2,.cls-3{fill:#ccc;}.cls-4{isolation:isolate;}.cls-5{fill:#009373;}.cls-3{mix-blend-mode:multiply;}</style><clipPath id="SvgjsClipPath1132"><rect width="1000" height="1000" x="0" y="0" rx="500" ry="500"></rect></clipPath></defs><g class="cls-4"><g id="Layer_1"><path class="cls-1" d="M405.46,280.56c-.71-.73-1.56-1.31-2.54-1.72-.99-.41-2.03-.62-3.13-.62s-2.21.21-3.2.62c-.99.41-1.83.99-2.54,1.72-.71.73-1.27,1.57-1.68,2.51-.41.94-.62,1.96-.62,3.06s.21,2.21.62,3.2c.41.99.97,1.84,1.68,2.58.71.73,1.56,1.31,2.54,1.72.98.41,2.05.62,3.2.62s2.14-.21,3.13-.62c.98-.41,1.83-.99,2.54-1.72.71-.73,1.28-1.58,1.72-2.54.44-.96.65-1.99.65-3.09s-.22-2.14-.65-3.13c-.44-.99-1.01-1.84-1.72-2.58Z"></path><path class="cls-1" d="M334.76,294.99c4.22,0,6.32-2.18,6.32-6.53v-15.31c-4.2-.64-8.41-1.49-12.65-2.58v17.89c0,4.35,2.11,6.53,6.32,6.53Z"></path><path class="cls-2" d="M285.04,182.82c.49.05.98.08,1.47.13-.49-.05-.98-.08-1.47-.13Z"></path><path class="cls-2" d="M274.37,182.1s.04,0,.06,0c-.02,0-.04,0-.06,0Z"></path><path class="cls-2" d="M279.49,182.37c.33.02.67.03,1,.05-.33-.02-.67-.03-1-.05Z"></path><path class="cls-2" d="M381.94,224.53l-41.94-24.93c-2.47-1.47-5.04-2.85-7.69-4.13,2.65,1.29,5.22,2.66,7.69,4.13l41.94,24.93Z"></path><path class="cls-2" d="M396.49,267.5c.74,0,1.45.06,2.15.15,10.32-3.55,20.65-8.47,31.03-14.73l-18.6-11.05c-2.48-1.46-5.05-2.85-7.7-4.17-40.8-17.15-90.25-10.32-124.52,10.57l-15.49-9.21h0s23.3,13.85,23.3,13.85c11.86,6.9,23.47,12.11,34.9,15.69h6.87v1.97c4.24,1.09,8.45,1.95,12.65,2.58v-4.55h12.44v5.77c2.36.11,4.72.14,7.08.11v-27.67h12.44v26.82c4.14-.51,8.27-1.24,12.39-2.19,1.17-.97,2.46-1.8,3.9-2.46,2.15-.98,4.54-1.48,7.15-1.48Z"></path><path class="cls-2" d="M390.16,231.97l12.69,5.47c-4.05-1.99-8.3-3.82-12.69-5.47Z"></path><path class="cls-5" d="M133.29,286.67l-7.99-16.76c-7.66-2.69-13.5-5.77-17.81-8.32l21.54,42.26h8.32l14.64-28.14c-4.53-.46-8.74-1.13-12.63-1.93l-6.07,12.88Z"></path><path class="cls-5" d="M178.71,276.02c.52.24,1.01.52,1.46.89,1.28,1.05,2.13,2.45,2.54,4.19h-14.23c.32-1.83,1.09-3.25,2.3-4.26.21-.17.44-.31.67-.45-4.75.14-9.23.07-13.45-.18-.4.71-.76,1.45-1.07,2.24-.92,2.36-1.37,5.01-1.37,7.94s.48,5.41,1.44,7.7c.96,2.29,2.33,4.26,4.09,5.91,1.76,1.65,3.88,2.92,6.36,3.82,2.47.89,5.2,1.34,8.18,1.34,9.71,0,15.79-4.03,18.22-12.1h-12.03c-1.37,2.2-3.41,3.3-6.12,3.3-5.04,0-7.56-2.68-7.56-8.04h26.19v-1.31c0-3.07-.44-5.83-1.31-8.28-.52-1.47-1.2-2.79-2.01-3.99-.93.13-1.85.26-2.79.37-3.29.4-6.44.69-9.52.91Z"></path><path class="cls-5" d="M201.41,303.86h12.44v-15.12c0-3.3.72-5.81,2.17-7.53,1.44-1.72,3.61-2.58,6.5-2.58,1.92,0,3.71.41,5.36,1.24v-11.89c-.5-.09-.95-.14-1.34-.14h-1.07c-2.57,0-4.81.56-6.74,1.68-1.92,1.12-3.55,2.74-4.88,4.85v-4.32c-4.01,1.09-8.16,2.08-12.44,2.94v30.87Z"></path><path class="cls-5" d="M236.19,268.59h-4.12v10.38h4.12v24.88h12.44v-24.88h7.08v-10.38h-7.08v-11.72c-3.84,1.88-7.99,3.77-12.44,5.58v6.14Z"></path><rect class="cls-5" x="261.35" y="268.59" width="12.44" height="35.26"></rect><path class="cls-5" d="M272.49,250.1c-.64-.64-1.39-1.15-2.23-1.51-.85-.37-1.75-.55-2.72-.55s-1.87.18-2.71.55c-.85.37-1.59.87-2.23,1.51-.64.64-1.15,1.39-1.51,2.23-.37.85-.55,1.75-.55,2.72s.18,1.87.55,2.71c.37.85.87,1.59,1.51,2.23.64.64,1.39,1.15,2.23,1.51.85.37,1.75.55,2.71.55s1.87-.18,2.72-.55c.85-.37,1.59-.87,2.23-1.51.64-.64,1.14-1.39,1.51-2.23.37-.85.55-1.75.55-2.71s-.18-1.87-.55-2.72c-.37-.85-.87-1.59-1.51-2.23Z"></path><path class="cls-5" d="M292.8,268.9c-2.41.94-4.48,2.25-6.22,3.92-1.74,1.67-3.12,3.67-4.12,5.98-1.01,2.31-1.51,4.87-1.51,7.66s.53,5.33,1.58,7.6c1.05,2.27,2.46,4.22,4.23,5.84,1.76,1.63,3.8,2.88,6.12,3.75,2.31.87,4.75,1.31,7.32,1.31,2.75,0,5.66-.67,8.73-1.99v-10.59c-2.02,1.6-4.19,2.41-6.53,2.41-1.19,0-2.31-.21-3.37-.62-1.05-.41-1.96-1-2.72-1.75-.76-.76-1.35-1.65-1.79-2.68-.44-1.03-.65-2.17-.65-3.4s.22-2.44.65-3.47c.44-1.03,1.04-1.92,1.82-2.68.78-.76,1.68-1.34,2.72-1.75,1.03-.41,2.14-.62,3.33-.62,2.2,0,4.38.73,6.53,2.2v-10.59c-2.57-1.28-5.36-1.92-8.39-1.92-2.75,0-5.33.47-7.73,1.41Z"></path><path class="cls-5" d="M341.09,268.59v19.87c0,4.35-2.11,6.53-6.32,6.53s-6.32-2.18-6.32-6.53v-19.87h-12.44v22.27c0,4.77,1.57,8.34,4.71,10.72,3.14,2.38,7.82,3.57,14.06,3.57s10.92-1.19,14.06-3.57c3.14-2.38,4.71-5.96,4.71-10.72v-22.27h-12.44Z"></path><polygon class="cls-5" points="360.61 246.8 360.61 274.47 360.61 303.86 373.05 303.86 373.05 273.62 373.05 246.8 360.61 246.8"></polygon><path class="cls-5" d="M407.42,268.59v3.51c-2.4-2.55-5.33-4.03-8.78-4.46-.7-.09-1.41-.15-2.15-.15-2.61,0-5,.49-7.15,1.48-1.44.66-2.73,1.49-3.9,2.46-.58.49-1.15,1-1.67,1.56-1.56,1.7-2.77,3.68-3.64,5.95-.87,2.27-1.31,4.66-1.31,7.18,0,2.71.45,5.2,1.34,7.49.89,2.29,2.14,4.29,3.75,5.98,1.6,1.7,3.48,3.01,5.64,3.95,2.15.94,4.51,1.41,7.08,1.41,4.54,0,8.13-1.67,10.79-5.02v3.92h12.51v-35.26h-12.51ZM407.18,289.35c-.44.96-1.01,1.81-1.72,2.54-.71.73-1.56,1.31-2.54,1.72-.99.41-2.03.62-3.13.62s-2.21-.21-3.2-.62c-.99-.41-1.83-.99-2.54-1.72-.71-.73-1.27-1.59-1.68-2.58-.41-.99-.62-2.05-.62-3.2s.21-2.12.62-3.06c.41-.94.97-1.78,1.68-2.51.71-.73,1.56-1.31,2.54-1.72.98-.41,2.05-.62,3.2-.62s2.14.21,3.13.62c.98.41,1.83.99,2.54,1.72.71.73,1.28,1.59,1.72,2.58.44.99.65,2.03.65,3.13s-.22,2.13-.65,3.09Z"></path><path class="cls-5" d="M452.14,267.84h-1.07c-2.57,0-4.81.56-6.74,1.68-1.92,1.12-3.55,2.74-4.88,4.85v-5.77h-12.44v35.26h12.44v-15.12c0-3.3.72-5.81,2.17-7.53,1.44-1.72,3.61-2.58,6.5-2.58,1.92,0,3.71.41,5.36,1.24v-11.89c-.5-.09-.95-.14-1.34-.14Z"></path><path class="cls-2" d="M390.16,231.97c-38.63-14.53-88.74-15.53-121.74,4.08l-5.07,3,15.49,9.21c34.27-20.89,83.72-27.72,124.52-10.57-.17-.08-.34-.16-.51-.24l-12.69-5.47Z"></path><path class="cls-3" d="M390.16,231.97c-38.63-14.53-88.74-15.53-121.74,4.08l-5.07,3,15.49,9.21c34.27-20.89,83.72-27.72,124.52-10.57-.17-.08-.34-.16-.51-.24l-12.69-5.47Z"></path><path class="cls-5" d="M274.43,182.1c1.69.06,3.37.16,5.06.27-1.68-.11-3.37-.21-5.06-.27Z"></path><path class="cls-5" d="M286.51,182.95c2,.21,3.99.46,5.97.75-1.98-.29-3.97-.54-5.97-.75Z"></path><path class="cls-5" d="M280.49,182.42c1.52.11,3.04.26,4.55.4-1.51-.15-3.03-.3-4.55-.4Z"></path><path class="cls-5" d="M268.38,182s-.02,0-.02,0c2.01,0,4.01.03,6.02.1-2-.07-3.99-.1-5.99-.1Z"></path><polygon class="cls-5" points="411.07 241.85 381.94 224.53 411.07 241.85 411.07 241.85"></polygon><path class="cls-5" d="M292.49,183.71c3.14.45,6.25,1,9.32,1.64-3.07-.64-6.18-1.18-9.32-1.64Z"></path><path class="cls-5" d="M402.86,237.44c.17.08.34.16.51.24.51.21,1.03.42,1.54.64l-2.05-.88Z"></path><path class="cls-5" d="M411.07,241.85l-29.13-17.32-41.94-24.93c-2.47-1.47-5.04-2.85-7.69-4.13-.13-.06-.26-.12-.39-.18-1.2-.58-2.41-1.14-3.64-1.68-.24-.11-.5-.2-.74-.31-1.13-.48-2.26-.96-3.41-1.41-.2-.08-.42-.15-.62-.23-1.2-.46-2.41-.92-3.64-1.35-.18-.06-.36-.12-.54-.18-1.26-.44-2.54-.86-3.82-1.27-.16-.05-.32-.09-.48-.14-1.32-.41-2.64-.8-3.98-1.17-.08-.02-.17-.04-.26-.07-1.41-.39-2.84-.76-4.28-1.1-.07-.02-.15-.03-.22-.05-1.45-.35-2.92-.68-4.39-.98-.02,0-.05,0-.07-.01-3.07-.64-6.18-1.18-9.32-1.64,0,0-.01,0-.02,0-1.98-.29-3.97-.54-5.97-.75-.49-.05-.98-.08-1.47-.13-1.51-.15-3.03-.3-4.55-.4-.33-.02-.67-.03-1-.05-1.68-.11-3.37-.21-5.06-.27-.02,0-.04,0-.06,0-2-.07-4.01-.1-6.02-.1-25.91-.01-51.82,5.85-71.59,17.6l-89.67,53.31h0c1.25.74,2.53,1.46,3.83,2.14.61.32,1.25.62,1.87.93,2.41,1.2,4.89,2.31,7.44,3.32,15.02,5.95,32.29,8.62,49.88,8.48,2.8-.02,5.6-.1,8.4-.26,25.9-1.49,51.82-8.86,71.58-20.61l12.18-7.21,1.09-.64h0s5.07-3,5.07-3c33-19.61,83.11-18.61,121.74-4.08,4.39,1.65,8.64,3.48,12.69,5.47l2.05.88c-.51-.22-1.02-.42-1.54-.64,2.65,1.32,5.22,2.71,7.7,4.17Z"></path></g></g></svg></svg></g></g></svg></g><g id="dark-icon"><svg xmlns="http://www.w3.org/2000/svg" version="1.1" xmlns:xlink="http://www.w3.org/1999/xlink" width="1000" height="1000"><g><g transform="matrix(1.7831351081471445,0,0,1.7831351081471445,0,33.5764340864107)"><svg xmlns="http://www.w3.org/2000/svg" version="1.1" xmlns:xlink="http://www.w3.org/1999/xlink" width="560.81" height="523.15"><svg id="Layer_1" xmlns="http://www.w3.org/2000/svg" viewBox="0 0 560.81 523.15"><defs><style>.cls-1{fill:none;}.cls-2{fill:#42ac96;}.cls-3{fill:#fff;}</style></defs><path class="cls-1" d="M334.76,294.99c4.22,0,6.32-2.18,6.32-6.53v-15.31c-4.2-.64-8.41-1.49-12.65-2.58v17.89c0,4.35,2.11,6.53,6.32,6.53Z"></path><path class="cls-1" d="M405.46,280.56c-.71-.73-1.56-1.31-2.54-1.72-.99-.41-2.03-.62-3.13-.62s-2.21.21-3.2.62c-.99.41-1.83.99-2.54,1.72-.71.73-1.27,1.57-1.68,2.51-.41.94-.62,1.96-.62,3.06s.21,2.21.62,3.2c.41.99.97,1.84,1.68,2.58.71.73,1.56,1.31,2.54,1.72.98.41,2.05.62,3.2.62s2.14-.21,3.13-.62c.98-.41,1.83-.99,2.54-1.72.71-.73,1.28-1.58,1.72-2.54.44-.96.65-1.99.65-3.09s-.22-2.14-.65-3.13c-.44-.99-1.01-1.84-1.72-2.58Z"></path><path class="cls-2" d="M390.16,231.97l12.69,5.47c-4.05-1.99-8.3-3.82-12.69-5.47Z"></path><path class="cls-2" d="M404.59,238l-64.6-38.4c-2.47-1.47-5.04-2.85-7.69-4.13,2.65,1.29,5.22,2.66,7.69,4.13l64.6,38.4Z"></path><path class="cls-2" d="M396.49,267.5c.74,0,1.45.06,2.15.15,10.33-3.55,20.65-8.47,31.03-14.73l-18.59-11.05s0,0,0,0h0c-2.48-1.46-5.05-2.85-7.7-4.17-40.8-17.15-90.25-10.32-124.52,10.57l7.82,4.65c11.86,6.9,23.47,12.11,34.9,15.69h6.87v1.97c4.24,1.09,8.45,1.95,12.65,2.58v-4.55h12.44v5.77c2.36.11,4.72.14,7.08.11v-27.67h12.44v26.82c4.14-.51,8.27-1.24,12.39-2.19,1.17-.97,2.46-1.8,3.9-2.46,2.15-.98,4.54-1.48,7.15-1.48Z"></path><path class="cls-3" d="M133.29,286.67l-7.99-16.76c-7.66-2.69-13.5-5.77-17.81-8.32l21.54,42.26h8.32l14.64-28.14c-4.53-.46-8.74-1.13-12.63-1.93l-6.07,12.88Z"></path><path class="cls-3" d="M178.71,276.02c.52.24,1.01.52,1.46.89,1.28,1.05,2.13,2.45,2.54,4.19h-14.23c.32-1.83,1.09-3.25,2.3-4.26.21-.17.44-.31.67-.45-4.75.14-9.23.07-13.45-.18-.4.71-.76,1.45-1.07,2.24-.92,2.36-1.37,5.01-1.37,7.94s.48,5.41,1.44,7.7c.96,2.29,2.33,4.26,4.09,5.91,1.76,1.65,3.88,2.92,6.36,3.82,2.47.89,5.2,1.34,8.18,1.34,9.71,0,15.79-4.03,18.22-12.1h-12.03c-1.37,2.2-3.41,3.3-6.12,3.3-5.04,0-7.56-2.68-7.56-8.04h26.19v-1.31c0-3.07-.44-5.83-1.31-8.28-.52-1.47-1.2-2.79-2.01-3.99-.93.13-1.85.26-2.79.37-3.29.4-6.44.69-9.52.91Z"></path><path class="cls-3" d="M201.41,303.86h12.44v-15.12c0-3.3.72-5.81,2.17-7.53,1.44-1.72,3.61-2.58,6.5-2.58,1.92,0,3.71.41,5.36,1.24v-11.89c-.5-.09-.95-.14-1.34-.14h-1.07c-2.57,0-4.81.56-6.74,1.68-1.92,1.12-3.55,2.74-4.88,4.85v-4.32c-4.01,1.09-8.16,2.08-12.44,2.94v30.87Z"></path><path class="cls-3" d="M236.19,268.59h-4.12v10.38h4.12v24.88h12.44v-24.88h7.08v-10.38h-7.08v-11.72c-3.84,1.88-7.99,3.77-12.44,5.58v6.14Z"></path><rect class="cls-3" x="261.35" y="268.59" width="12.44" height="35.26"></rect><path class="cls-3" d="M272.49,250.1c-.64-.64-1.39-1.15-2.23-1.51-.85-.37-1.75-.55-2.72-.55s-1.87.18-2.71.55c-.85.37-1.59.87-2.23,1.51-.64.64-1.15,1.39-1.51,2.23-.37.85-.55,1.75-.55,2.72s.18,1.87.55,2.71c.37.85.87,1.59,1.51,2.23.64.64,1.39,1.15,2.23,1.51.85.37,1.75.55,2.71.55s1.87-.18,2.72-.55c.85-.37,1.59-.87,2.23-1.51.64-.64,1.14-1.39,1.51-2.23.37-.85.55-1.75.55-2.71s-.18-1.87-.55-2.72c-.37-.85-.87-1.59-1.51-2.23Z"></path><path class="cls-3" d="M292.8,268.9c-2.41.94-4.48,2.25-6.22,3.92-1.74,1.67-3.12,3.67-4.12,5.98-1.01,2.31-1.51,4.87-1.51,7.66s.53,5.33,1.58,7.6c1.05,2.27,2.46,4.22,4.23,5.84,1.76,1.63,3.8,2.88,6.12,3.75,2.31.87,4.75,1.31,7.32,1.31,2.75,0,5.66-.67,8.73-1.99v-10.59c-2.02,1.6-4.19,2.41-6.53,2.41-1.19,0-2.31-.21-3.37-.62-1.05-.41-1.96-1-2.72-1.75-.76-.76-1.35-1.65-1.79-2.68-.44-1.03-.65-2.17-.65-3.4s.22-2.44.65-3.47c.44-1.03,1.04-1.92,1.82-2.68.78-.76,1.68-1.34,2.72-1.75,1.03-.41,2.14-.62,3.33-.62,2.2,0,4.38.73,6.53,2.2v-10.59c-2.57-1.28-5.36-1.92-8.39-1.92-2.75,0-5.33.47-7.73,1.41Z"></path><path class="cls-3" d="M341.09,268.59v19.87c0,4.35-2.11,6.53-6.32,6.53s-6.32-2.18-6.32-6.53v-19.87h-12.44v22.27c0,4.77,1.57,8.34,4.71,10.72,3.14,2.38,7.82,3.57,14.06,3.57s10.92-1.19,14.06-3.57c3.14-2.38,4.71-5.96,4.71-10.72v-22.27h-12.44Z"></path><polygon class="cls-3" points="360.61 246.8 360.61 274.47 360.61 303.86 373.05 303.86 373.05 273.62 373.05 246.8 360.61 246.8"></polygon><path class="cls-3" d="M407.42,268.59v3.51c-2.4-2.55-5.33-4.03-8.78-4.46-.7-.09-1.41-.15-2.15-.15-2.61,0-5,.49-7.15,1.48-1.44.66-2.73,1.49-3.9,2.46-.58.49-1.15,1-1.67,1.56-1.56,1.7-2.77,3.68-3.64,5.95-.87,2.27-1.31,4.66-1.31,7.18,0,2.71.45,5.2,1.34,7.49.89,2.29,2.14,4.29,3.75,5.98,1.6,1.7,3.48,3.01,5.64,3.95,2.15.94,4.51,1.41,7.08,1.41,4.54,0,8.13-1.67,10.79-5.02v3.92h12.51v-35.26h-12.51ZM407.18,289.35c-.44.96-1.01,1.81-1.72,2.54-.71.73-1.56,1.31-2.54,1.72-.99.41-2.03.62-3.13.62s-2.21-.21-3.2-.62c-.99-.41-1.83-.99-2.54-1.72-.71-.73-1.27-1.59-1.68-2.58-.41-.99-.62-2.05-.62-3.2s.21-2.12.62-3.06c.41-.94.97-1.78,1.68-2.51.71-.73,1.56-1.31,2.54-1.72.98-.41,2.05-.62,3.2-.62s2.14.21,3.13.62c.98.41,1.83.99,2.54,1.72.71.73,1.28,1.59,1.72,2.58.44.99.65,2.03.65,3.13s-.22,2.13-.65,3.09Z"></path><path class="cls-3" d="M452.14,267.84h-1.07c-2.57,0-4.81.56-6.74,1.68-1.92,1.12-3.55,2.74-4.88,4.85v-5.77h-12.44v35.26h12.44v-15.12c0-3.3.72-5.81,2.17-7.53,1.44-1.72,3.61-2.58,6.5-2.58,1.92,0,3.71.41,5.36,1.24v-11.89c-.5-.09-.95-.14-1.34-.14Z"></path><path class="cls-3" d="M268.38,182s-.02,0-.02,0c2,0,4.01.03,6.01.1-1.99-.07-3.99-.1-5.99-.1Z"></path><path class="cls-3" d="M280.48,182.42c1.29.09,2.57.22,3.86.34-1.29-.12-2.57-.25-3.86-.34Z"></path><polygon class="cls-3" points="411.07 241.85 411.07 241.85 411.07 241.85 411.07 241.85"></polygon><polygon class="cls-3" points="411.07 241.85 404.59 238 411.07 241.85 411.07 241.85"></polygon><path class="cls-3" d="M292.49,183.71c3.14.45,6.25,1,9.32,1.64-3.07-.64-6.18-1.18-9.32-1.64Z"></path><path class="cls-3" d="M402.86,237.44c.17.08.34.16.51.24.51.21,1.03.42,1.54.64l-2.05-.88Z"></path><path class="cls-3" d="M411.07,241.85l-6.48-3.85-64.6-38.4c-2.47-1.47-5.04-2.85-7.69-4.13-.13-.06-.26-.12-.39-.18-1.2-.58-2.41-1.14-3.64-1.68-.24-.11-.5-.2-.74-.31-1.13-.48-2.26-.96-3.41-1.41-.2-.08-.42-.15-.62-.23-1.2-.46-2.41-.92-3.64-1.35-.18-.06-.36-.12-.54-.18-1.26-.44-2.54-.86-3.82-1.27-.16-.05-.32-.09-.48-.14-1.32-.41-2.64-.8-3.98-1.17-.09-.02-.17-.04-.26-.07-1.42-.39-2.84-.76-4.28-1.1-.07-.02-.15-.03-.22-.05-1.45-.35-2.92-.68-4.39-.98-.02,0-.05,0-.07-.01-3.07-.64-6.18-1.18-9.32-1.64-.01,0-.02,0-.03,0-1.98-.29-3.96-.53-5.96-.75-.72-.08-1.44-.12-2.16-.19-1.29-.12-2.57-.25-3.86-.34-.34-.02-.68-.03-1.03-.05-1.67-.11-3.35-.21-5.03-.26-.02,0-.04,0-.06,0-2-.07-4.01-.1-6.01-.1-25.91-.01-51.82,5.85-71.59,17.6l-89.67,53.31h0c1.25.74,2.53,1.46,3.83,2.14.61.32,1.25.62,1.87.93,2.41,1.2,4.89,2.31,7.44,3.32,15.02,5.95,32.29,8.62,49.88,8.48,2.8-.02,5.6-.1,8.4-.26,25.9-1.49,51.82-8.86,71.58-20.61l12.18-7.21,1.09-.64h0s5.07-3,5.07-3c33-19.61,83.11-18.61,121.74-4.08,4.39,1.65,8.64,3.48,12.69,5.47l2.05.88c-.51-.22-1.02-.42-1.54-.64,2.65,1.32,5.23,2.71,7.7,4.17Z"></path></svg></svg></g></g></svg></g></svg>